<svg xmlns="http://www.w3.org/2000/svg"  viewBox="0 0 40 40" width="30px" height="30px"><path fill="#fff" d="M1.5,37.5V15.521L17.981,4.132c0.596-0.412,1.294-0.63,2.019-0.63s1.423,0.218,2.019,0.63 L38.5,15.521V37.5H1.5z"/><path fill="#ba9b48" d="M20,4.002c0.622,0,1.222,0.187,1.734,0.541L38,15.782V37H2V15.782L18.266,4.543 C18.778,4.189,19.378,4.002,20,4.002 M20,3.002c-0.805,0-1.61,0.239-2.302,0.718L1,15.258V38h38V15.258L22.302,3.72 C21.61,3.242,20.805,3.002,20,3.002L20,3.002z"/><path fill="#fff" d="M20,4.002c-0.622,0-1.222,0.187-1.734,0.541L2,15.782V37h36V15.782L21.734,4.543	C21.222,4.189,20.622,4.002,20,4.002z"/><path fill="#ffeea3" d="M25,25H15L2,15.782L18.266,4.543C18.778,4.189,19.378,4.002,20,4.002s1.222,0.187,1.734,0.541	L38,15.782L25,25z"/><path fill="#ebd7a7" d="M24.681 24L15.319 24 2.876 15.177 2 15.782 15 25 25 25 38 15.782 37.124 15.177z"/></svg>